<?xml version="1.0" encoding="UTF-8" standalone="no"?>
<!-- Created with Inkscape (http://www.inkscape.org/) -->

<svg
   width="1250"
   height="1600"
   id="svg2"
   version="1.1"
   inkscape:version="1.4.3 (0d15f75042, 2025-12-25)"
   sodipodi:docname="sushi-tango-logo.svg"
   inkscape:export-filename="./tangosushi-logo.png"
   inkscape:export-xdpi="90"
   inkscape:export-ydpi="90"
   xmlns:inkscape="http://www.inkscape.org/namespaces/inkscape"
   xmlns:sodipodi="http://sodipodi.sourceforge.net/DTD/sodipodi-0.dtd"
   xmlns:xlink="http://www.w3.org/1999/xlink"
   xmlns="http://www.w3.org/2000/svg"
   xmlns:svg="http://www.w3.org/2000/svg"
   xmlns:rdf="http://www.w3.org/1999/02/22-rdf-syntax-ns#"
   xmlns:cc="http://creativecommons.org/ns#"
   xmlns:dc="http://purl.org/dc/elements/1.1/">
  <defs
     id="defs4">
    <pattern
       inkscape:collect="always"
       xlink:href="#pattern6795"
       id="pattern2"
       patternTransform="matrix(9.3969264,3.4202015,-1.710101,4.698464,185,405)"
       x="0"
       y="0"
       preserveAspectRatio="none" />
    <pattern
       patternUnits="userSpaceOnUse"
       width="20"
       height="20"
       patternTransform="translate(185,405)"
       style="fill:#0077ea"
       id="pattern6795"
       inkscape:label="Abstract 2"
       inkscape:collect="always"
       inkscape:isstock="true">
      <path
         id="rect6713"
         style="opacity:1;stroke-width:4.8561;stroke-linecap:square;paint-order:stroke markers fill;stop-color:#000000"
         d="M 10,10 H 20 L 15,20 H 5 Z M 5,0 H 15 L 10,10 H 0 Z" />
    </pattern>
  </defs>
  <sodipodi:namedview
     id="base"
     pagecolor="#ffffff"
     bordercolor="#666666"
     borderopacity="1.0"
     inkscape:pageopacity="0.0"
     inkscape:pageshadow="2"
     inkscape:zoom="0.12335553"
     inkscape:cx="-441.81236"
     inkscape:cy="-1321.3838"
     inkscape:document-units="px"
     inkscape:current-layer="layer8"
     showgrid="false"
     inkscape:window-width="1692"
     inkscape:window-height="1056"
     inkscape:window-x="0"
     inkscape:window-y="0"
     inkscape:window-maximized="1"
     borderlayer="true"
     inkscape:snap-page="false"
     showguides="true"
     inkscape:guide-bbox="true"
     inkscape:showpageshadow="2"
     inkscape:pagecheckerboard="0"
     inkscape:deskcolor="#d1d1d1" />
  <metadata
     id="metadata7">
    <rdf:RDF>
      <cc:Work
         rdf:about="">
        <dc:format>image/svg+xml</dc:format>
        <dc:type
           rdf:resource="http://purl.org/dc/dcmitype/StillImage" />
      </cc:Work>
    </rdf:RDF>
  </metadata>
  <g
     inkscape:groupmode="layer"
     id="layer8"
     inkscape:label="words"
     style="display:inline"
     transform="translate(113,113)">
    <rect
       style="fill:#000000;stroke-width:4.56437"
       id="rect3"
       width="1250"
       height="1250"
       x="-113"
       y="-113" />
    <rect
       style="fill:#000000;stroke-width:5.16398"
       id="rect2"
       width="1250"
       height="1600"
       x="-113"
       y="-113" />
    <text
       xml:space="preserve"
       style="font-style:normal;font-variant:normal;font-weight:bold;font-stretch:normal;font-size:220.723px;line-height:0%;font-family:'BankGothic Md BT';-inkscape-font-specification:'BankGothic Md BT Bold';text-align:center;letter-spacing:0px;writing-mode:lr-tb;text-anchor:middle;fill:#ffffff;fill-opacity:1;stroke:none;stroke-width:1.62221"
       x="513.29327"
       y="1284.1128"
       id="text3827"><tspan
         sodipodi:role="line"
         id="tspan3829"
         x="513.29327"
         y="1284.1128"
         style="font-style:normal;font-variant:normal;font-weight:normal;font-stretch:normal;font-size:220.723px;line-height:1;font-family:'Futura Display';-inkscape-font-specification:'Futura Display';letter-spacing:0px;fill:#ffffff;stroke-width:1.62221">SUSHI TANGO</tspan></text>
    <rect
       style="fill:#ffcc00;stroke-width:5"
       id="rect1"
       width="1024"
       height="1024"
       x="0"
       y="0" />
    <text
       xml:space="preserve"
       style="font-style:normal;font-variant:normal;font-weight:normal;font-stretch:normal;font-size:145.175px;line-height:1;font-family:'BankGothic Md BT';-inkscape-font-specification:'BankGothic Md BT';font-variant-ligatures:no-contextual;text-align:center;letter-spacing:0px;word-spacing:0px;writing-mode:lr-tb;direction:ltr;text-anchor:middle;fill:#ffffff;stroke-width:5.33482"
       x="497.58771"
       y="1398.205"
       id="text1"
       transform="scale(1.0169399,0.98334228)"><tspan
         sodipodi:role="line"
         id="tspan1"
         x="497.58771"
         y="1398.205"
         style="stroke-width:5.33482">unorthodox</tspan></text>
    <rect
       style="display:inline;fill:url(#pattern2);stroke-width:5"
       id="rect1-5"
       width="1024"
       height="1024"
       x="0"
       y="0" />
    <text
       xml:space="preserve"
       style="font-style:normal;font-variant:normal;font-weight:normal;font-stretch:normal;font-size:57.8632px;line-height:1;font-family:Inter;-inkscape-font-specification:Inter;font-variant-ligatures:no-contextual;text-align:end;letter-spacing:0px;word-spacing:0px;writing-mode:lr-tb;direction:ltr;text-anchor:end;fill:#ffffff;stroke-width:2.12634"
       x="1042.797"
       y="1171.5206"
       id="text2"><tspan
         sodipodi:role="line"
         x="1042.797"
         y="1171.5206"
         id="tspan3"
         style="stroke-width:2.12634">™</tspan></text>
    <rect
       style="fill:#ffffff;stroke-width:0.942807"
       id="rect4"
       width="1000"
       height="80"
       x="11.999988"
       y="1407" />
    <text
       xml:space="preserve"
       style="font-style:normal;font-variant:normal;font-weight:normal;font-stretch:normal;font-size:90.8415px;line-height:1;font-family:'BankGothic Md BT';-inkscape-font-specification:'BankGothic Md BT';font-variant-ligatures:no-contextual;text-align:center;letter-spacing:0px;word-spacing:0px;writing-mode:lr-tb;direction:ltr;text-anchor:middle;fill:#000000;stroke-width:3.33821"
       x="503.00552"
       y="1490.7183"
       id="text4"
       transform="scale(1.0169399,0.98334228)"><tspan
         sodipodi:role="line"
         id="tspan4"
         x="503.00552"
         y="1490.7183"
         style="fill:#000000;stroke-width:3.33821">beta early access</tspan></text>
  </g>
  <g
     inkscape:groupmode="layer"
     id="layer5"
     inkscape:label="tanglarm"
     transform="translate(113,113)">
    <path
       style="fill:#000000;stroke:none;stroke-width:0.920627"
       d="m 537.5454,208.43059 34.64405,-21.17136 17.32201,9.62335 13.47269,25.02069 -4.05194,62.29851 -2.75211,35.00665 69.96749,-41.96508 33.32437,-13.36829 12.55881,18.92821 -21.32367,17.84819 3.68317,7.97562 -139.82238,91.95489 -26.30843,-32.38708 z"
       id="path3007"
       inkscape:connector-curvature="0"
       sodipodi:nodetypes="cccccccccccccc" />
  </g>
  <g
     inkscape:groupmode="layer"
     id="layer2"
     inkscape:label="tango"
     style="display:inline"
     transform="translate(113,113)">
    <path
       style="fill:#000000;stroke:none;stroke-width:0.920627"
       d="m 633.89666,260.02284 c 12.34759,5.19707 38.53386,-11.41903 38.53386,-11.41903 0,0 1.24567,-0.56116 9.42363,4.90379 8.17797,5.46496 14.2248,-24.59789 14.2248,-24.59789 0,0 8.29607,-2.41034 11.05576,-5.45531 16.29293,-17.97712 32.09141,-44.72388 25.65222,-68.11525 -7.07437,-25.69886 -39.74962,-46.82597 -66.80977,-46.15968 -19.54855,0.48134 -35.60737,19.48491 -46.5645,35.68119 -11.12635,16.4464 -18.15347,37.62567 -16.03986,57.36933 2.319,21.66236 10.44388,49.34123 30.52386,57.79285 z"
       id="path3828"
       inkscape:connector-curvature="0"
       sodipodi:nodetypes="acscasaaaa" />
    <path
       style="fill:#000000;stroke:none;stroke-width:0.920627"
       d="m 606.81433,179.01578 c -9.54042,-9.10314 -22.15145,-17.46175 -35.33398,-17.79023 -14.77407,-0.36815 -29.52313,8.0945 -40.54378,17.94102 -17.0011,15.18984 -24.6027,38.51652 -34.51834,59.04574 -10.7779,22.31448 -19.91012,45.52668 -26.94536,69.2881 -23.04735,77.84211 -49.53491,238.4564 -49.53491,238.4564 L 217.84768,778.84179 c 0,0 -18.76396,11.43301 -25.02069,26.40407 -12.5942,30.13528 -31.4022,43.70835 -40.08727,64.77715 -5.44592,13.21108 -19.33673,35.24615 -6.91677,42.31265 21.56518,12.2698 68.75421,-23.20218 89.61742,-50.25191 14.66352,-19.01166 19.72785,-31.21573 19.72785,-31.21573 l 26.19355,7.63852 223.26165,-211.71362 94.30879,-161.67223 96.23347,119.32951 -19.2467,252.1016 c 0,0 76.54134,43.55848 103.93215,21.20144 7.72429,-6.30476 8.77658,-25.13579 0.03,-29.92259 -13.66332,-7.47772 -26.97539,-23.96815 -26.97539,-23.96815 l 5.77401,-78.91144 9.62334,-175.14491 -40.41805,-90.45946 -99.03025,-78.43027 27.81748,-48.59791 c 0,0 2.13435,-49.99017 -4.88607,-73.52943 -8.72427,-29.25222 -22.88689,-58.70059 -44.97189,-79.7733 z"
       id="path2999"
       inkscape:connector-curvature="0"
       sodipodi:nodetypes="aaaaaccssssccccccssccccccaa" />
    <path
       style="fill:#ffffff;stroke:none;stroke-width:0.920627"
       d="m 637.17885,267.26714 c 0,0 -25.23563,-26.00863 -32.75125,-42.13065 -3.64483,-7.81864 -4.82735,-16.69699 -5.43654,-25.30191 -0.47497,-6.70909 1.4172,-20.12779 1.4172,-20.12779 0,0 -7.54068,4.13117 -9.45062,7.72335 -4.32778,8.13961 -5.51441,18.81635 -2.53317,27.53962 7.70736,22.5521 48.75438,52.29738 48.75438,52.29738 z"
       id="path3801"
       inkscape:connector-curvature="0"
       sodipodi:nodetypes="caacaac" />
    <path
       style="fill:#ffffff;stroke:none;stroke-width:0.920627"
       d="m 719.98898,196.16049 c 0,0 -16.6467,-4.79789 -24.42849,-8.51296 -6.33373,-3.02374 -17.88956,-11.10385 -17.88956,-11.10385 0,0 -7.69923,7.37443 -8.59229,12.29357 -0.8721,4.80364 3.63521,14.18826 3.63521,14.18826 0,0 -11.98632,-7.57043 -17.86753,-5.50787 -5.86631,2.05732 -10.48697,15.42202 -10.48697,15.42202 0,0 -8.66197,-6.30134 -9.87011,-11.10385 -1.08291,-4.30476 3.7157,-8.56075 3.08442,-12.95451 -0.94309,-6.56387 -4.01964,-14.15083 -9.8701,-17.27268 -2.54628,-1.35872 -6.10744,-0.7739 -8.63635,0.61688 -4.49295,2.47094 -8.2566,7.32029 -9.14308,12.37067 -1.64176,9.35342 4.00834,18.74714 8.11857,27.30798 1.39737,2.91048 -5.05192,4.25495 -5.1443,7.20431 -0.3008,9.60132 15.2458,24.45498 15.2458,24.45498 0,0 20.14292,-9.37585 28.03499,-16.91467 4.53817,-4.33501 10.45395,-15.65887 10.45395,-15.65887 0,0 24.2762,11.64477 35.71303,7.5017 8.91931,-3.23108 17.64281,-22.33111 17.64281,-22.33111 z"
       id="path3791"
       inkscape:connector-curvature="0"
       sodipodi:nodetypes="cacacacaaaaasacacac" />
  </g>
  <g
     inkscape:groupmode="layer"
     id="layer3"
     inkscape:label="sushi"
     transform="translate(113,113)">
    <path
       style="fill:#808080;stroke:none;stroke-width:0.920627"
       d="m 906.8793,403.53128 c 11.72985,32.43331 -9.34126,72.80124 -32.71937,98.15814 -28.83625,31.27702 -78.13397,33.68347 -117.40483,50.04139 -41.10869,17.12346 -84.3985,29.49672 -123.74458,50.35397 -38.64189,20.48395 -72.30533,49.24596 -109.14042,72.82487 -55.7881,35.71116 -107.33734,67.56772 -169.37089,103.93214 -44.80652,26.26584 -58.73814,21.37582 -88.5348,17.32204 -18.47909,-2.51406 -37.60376,-11.12457 -50.0414,-25.02071 -8.66366,-9.67961 -13.71116,-23.58037 -13.47268,-36.56872 0.713,-38.83278 17.85709,-79.30358 44.26739,-107.78148 143.00645,-154.20212 353.83369,-292.38534 563.92812,-282.92639 37.70474,1.69755 83.39703,24.17172 96.23346,59.66475 z"
       id="path3787"
       inkscape:connector-curvature="0"
       sodipodi:nodetypes="aaaaasaaaaaa" />
    <path
       style="fill:#ffffff;stroke:none;stroke-width:0.920627"
       d="m 196.67632,638.34093 c -9.58786,13.36005 -19.29392,29.86635 -17.32202,46.19207 3.81952,31.62265 30.71576,57.05965 53.89074,78.91145 10.88706,10.26545 23.54975,22.32427 38.49339,23.09603 65.06523,3.36027 119.93922,-51.44147 177.06957,-82.76079 67.55524,-37.03432 121.40392,-86.89901 195.11482,-123.88492 37.92755,-19.03092 85.23607,-32.30145 128.22963,-47.41065 22.96832,-8.07174 47.82342,-11.60848 69.2881,-23.09603 12.89867,-6.90316 27.02784,-14.45447 34.64404,-26.94537 21.74803,-35.66771 36.82459,-83.72394 23.09604,-123.17884 -6.42614,-18.46824 -25.34541,-33.56089 -44.2674,-38.49339 -72.93136,-19.01139 -149.88329,22.21731 -221.33696,46.19207 -86.79198,29.1212 -170.87268,68.53117 -248.28236,117.40483 -68.62766,43.32902 -141.29667,88.03501 -188.61759,153.97354 z"
       id="path3009"
       inkscape:connector-curvature="0"
       sodipodi:nodetypes="aaaaasaaaaaaaa" />
  </g>
  <g
     inkscape:groupmode="layer"
     id="layer7"
     inkscape:label="shrimp"
     transform="translate(113,113)">
    <path
       style="fill:#ff432d;fill-opacity:1;stroke:none;stroke-width:0.920627"
       d="m 177.42963,821.18453 c 0,0 32.22903,-51.97608 53.89074,-73.13744 75.77673,-74.0264 168.2189,-129.91154 260.18341,-182.49054 84.215,-48.14835 171.45103,-94.44748 264.88115,-120.54806 55.49602,-15.50334 117.01022,-2.05935 171.66575,-20.30585 15.61658,-5.21352 34.16745,-10.74614 42.69807,-24.82759 13.34375,-22.02639 13.47918,-53.44147 3.49406,-77.17989 -5.08278,-12.08361 -29.32607,-26.20342 -29.32607,-26.20342 0,0 -13.96255,-43.25188 -32.26343,-52.70802 -48.16029,-24.88464 -109.21187,-0.18264 -162.25594,10.99699 -11.53961,2.43209 -22.25844,7.81319 -33.26137,12.05736 -74.85094,28.87237 -151.81516,53.681 -222.74147,91.17415 -52.66288,27.83871 -104.36973,59.17892 -149.08269,98.53784 -65.02976,57.24295 -132.11799,118.81326 -169.65883,196.89213 -16.73063,34.79699 -21.31941,113.85159 -21.31941,113.85159 l -111.630821,100.08281 39.903004,7.87736 52.927967,-48.94239 -46.469141,54.80868 32.020041,22.63143 z"
       id="path3783"
       inkscape:connector-curvature="0"
       sodipodi:nodetypes="caaaaaacaaaaaaccccccc" />
    <path
       style="fill:#ffffff;stroke:none;stroke-width:0.920627"
       d="m 724.03571,270.7291 c 0,0 14.426,14.90071 19.37625,23.8756 4.8448,8.78371 9.64763,28.50535 9.64763,28.50535 0,0 21.15453,19.24291 26.13456,32.1148 8.70617,22.50284 3.99508,72.27458 3.99508,72.27458 l 15.42743,-2.58628 c 0,0 3.37951,-50.75254 -5.91975,-73.50756 -5.50154,-13.46214 -27.95772,-33.49371 -27.95772,-33.49371 0,0 -5.7185,-20.82682 -11.19264,-29.98337 -4.78328,-8.00096 -18.44788,-21.01738 -18.44788,-21.01738 z"
       id="path3016"
       inkscape:connector-curvature="0"
       sodipodi:nodetypes="cacaccacacc" />
    <path
       style="fill:#ffffff;stroke:none;stroke-width:0.920627"
       d="m 627.71723,313.46147 -15.31233,5.38436 c 0,0 15.10154,12.06284 20.11522,20.1099 6.06647,9.73678 11.11498,32.57179 11.11498,32.57179 0,0 17.17623,18.17303 22.90352,29.1114 7.97846,15.23777 15.15438,49.325 15.15438,49.325 l 12.23969,-4.18014 c 0,0 -6.86013,-36.19196 -15.09229,-52.39635 -5.57411,-10.97223 -22.62619,-29.17535 -22.62619,-29.17535 0,0 -4.91597,-22.58405 -10.78686,-32.29857 -4.40949,-7.29638 -17.71012,-18.45204 -17.71012,-18.45204 z"
       id="path3014"
       inkscape:connector-curvature="0"
       sodipodi:nodetypes="ccacaccacac" />
    <path
       style="fill:#ffffff;stroke:none;stroke-width:0.920627"
       d="m 475.63633,379.11438 -12.27301,5.97001 c 0,0 16.84584,11.10408 23.21242,18.74437 7.04196,8.45078 15.7615,28.99342 15.7615,28.99342 0,0 24.36989,24.5015 33.50139,39.0056 7.58047,12.04048 17.17633,39.07558 17.17633,39.07558 l 12.60188,-10.49902 c 0,0 -8.86129,-22.8061 -15.59198,-32.90707 -8.94952,-13.43081 -32.39934,-35.9807 -32.39934,-35.9807 0,0 -11.25676,-23.25808 -19.46454,-33.06747 -6.34978,-7.58884 -22.52465,-19.33472 -22.52465,-19.33472 z"
       id="path3012"
       inkscape:connector-curvature="0"
       sodipodi:nodetypes="ccacaccacac" />
    <path
       style="fill:#ffffff;stroke:none;stroke-width:0.920627"
       d="m 351.10812,459.89315 -9.65367,8.44665 c 0,0 17.91745,9.97415 25.10027,17.11166 7.49525,7.44798 18.02133,26.07859 18.02133,26.07859 0,0 27.21838,16.14807 36.44047,28.5097 7.85745,10.53237 14.43909,36.68169 14.43909,36.68169 l 12.08933,-6.25517 c 0,0 -7.14631,-26.29257 -15.22097,-36.8471 -9.51672,-12.43943 -37.22238,-28.6751 -37.22238,-28.6751 0,0 -10.38972,-19.29068 -17.96119,-27.00893 -7.39343,-7.53678 -26.03228,-18.04199 -26.03228,-18.04199 z"
       id="path3010"
       inkscape:connector-curvature="0"
       sodipodi:nodetypes="ccacaccacac" />
    <path
       style="fill:#ffffff;stroke:none;stroke-width:0.920627"
       d="m 254.24659,552.6292 -7.63371,8.45534 c 0,0 13.47186,7.1067 19.00516,12.21491 5.53149,5.10653 13.68747,17.96441 13.68747,17.96441 0,0 19.02451,9.56495 26.09095,17.22443 9.01421,9.77069 19.22466,34.94158 19.22466,34.94158 l 7.06713,-6.13489 c 0,0 -9.63944,-25.96582 -18.41267,-36.32493 -6.76204,-7.98436 -25.27898,-18.60779 -25.27898,-18.60779 0,0 -8.61258,-12.82758 -14.34908,-17.87421 -5.69071,-5.00633 -19.40093,-11.85885 -19.40093,-11.85885 z"
       id="path3008"
       inkscape:connector-curvature="0"
       sodipodi:nodetypes="ccacaccacac" />
    <path
       style="fill:#ffffff;stroke:none;stroke-width:0.920627"
       d="m 193.74629,665.2909 c -3.90858,-1.83942 -12.62485,-2.92521 -12.62485,-2.92521 0,0 6.99204,3.75388 9.97932,6.31852 4.55006,3.90629 11.81399,13.56792 11.81399,13.56792 0,0 12.91666,6.99288 17.03319,12.77401 6.15525,8.64427 9.71841,30.31587 9.71841,30.31587 l 17.22245,-14.34643 c 0,0 -11.54254,-19.77808 -20.29175,-26.76262 -5.65406,-4.51369 -19.77027,-8.95618 -19.77027,-8.95618 0,0 -8.11714,-7.65009 -13.08049,-9.98588 z"
       id="path3785"
       inkscape:connector-curvature="0"
       sodipodi:nodetypes="acacaccaca" />
    <path
       style="fill:#ffffff;stroke:none;stroke-width:0.920627"
       d="m 849.88078,238.72181 c 0,0 30.22385,5.87629 42.99603,13.85089 18.53947,11.57554 45.46344,47.2485 45.46344,47.2485 0,0 -13.61571,-39.11981 -29.53627,-50.26347 -16.36077,-11.45178 -58.9232,-10.83592 -58.9232,-10.83592 z"
       id="path3807"
       inkscape:connector-curvature="0"
       sodipodi:nodetypes="cacac" />
    <path
       style="fill:#ffffff;stroke:none;stroke-width:0.920627"
       d="m 190.23595,782.27171 c 0,0 20.4735,-45.01092 36.98815,-62.84773 70.20754,-75.82831 162.79957,-129.29458 254.30329,-177.31651 124.93185,-65.5653 255.39884,-149.73326 396.48187,-148.19954 35.42983,0.38516 50.04142,21.17136 50.04142,21.17136 0,0 -51.48645,14.53671 -125.10352,13.64921 -19.86828,-0.23952 -48.51429,6.50726 -71.529,14.36464 -112.39452,38.37223 -217.73245,96.53901 -319.28695,158.11528 -64.47329,39.09256 -127.92589,81.53917 -182.73099,133.32173 -14.96139,14.13627 -39.16427,47.74156 -39.16427,47.74156 z"
       id="path3824"
       inkscape:connector-curvature="0"
       sodipodi:nodetypes="caascsaaac" />
  </g>
  <g
     inkscape:groupmode="layer"
     id="layer9"
     inkscape:label="highlight"
     style="display:inline"
     transform="translate(113,113)">
    <path
       style="fill:#ffffff;stroke:none;stroke-width:0.920627"
       d="m 570.06217,263.03041 c 0,0 26.26802,-5.87305 38.49338,-1.92466 11.72744,3.78756 23.53148,11.98847 28.87005,23.09603 6.66995,13.87769 1.6922,30.88797 0,46.19206 -4.841,43.78153 -28.87005,128.95285 -28.87005,128.95285 l 9.16201,20.35682 -53.53752,25.10715 z"
       id="path3803"
       inkscape:connector-curvature="0"
       sodipodi:nodetypes="caaacccc" />
  </g>
  <g
     inkscape:groupmode="layer"
     id="layer4"
     inkscape:label="tangrarm"
     transform="translate(113,113)">
    <path
       style="fill:#000000;stroke:none;stroke-width:0.920627"
       d="m 529.64412,295.7498 c 6.36116,-14.55484 19.53437,-27.81986 34.64404,-32.71939 14.15521,-4.59001 31.52639,-1.91394 44.26739,5.77402 11.43028,6.89706 23.87086,19.39195 23.09604,32.71937 -3.78858,65.16533 -30.79471,161.67222 -30.79471,161.67222 l 50.04141,88.53479 35.17361,39.71196 c 0,0 -25.92358,20.77522 -40.61805,18.47262 -13.06503,-2.04727 -29.35902,-26.68377 -29.35902,-26.68377 l -24.15518,7.52216 -64.22021,-104.46172 c 0,0 -23.5122,-132.34075 1.92468,-190.54226 z"
       id="path3004"
       inkscape:connector-curvature="0"
       sodipodi:nodetypes="aaascccaccca" />
    <path
       style="fill:#ffffff;stroke:none;stroke-width:0.920627"
       d="m 675.34493,588.8043 -25.54297,-26.47562 -26.78016,16.10237 c 0,0 12.14169,21.31154 22.83783,23.37801 10.54693,2.03763 29.4853,-13.00476 29.4853,-13.00476 z"
       id="path3834"
       inkscape:connector-curvature="0"
       sodipodi:nodetypes="cccac" />
  </g>
</svg>
