<?xml version="1.0" encoding="UTF-8" standalone="no"?>
<!-- Created with Inkscape (http://www.inkscape.org/) -->

<svg
   width="1250"
   height="1600"
   id="svg2"
   version="1.1"
   inkscape:version="1.4.3 (0d15f75042, 2025-12-25)"
   sodipodi:docname="sushi-tango-logo.svg"
   inkscape:export-filename="./sushi-tango-wallpaper.png"
   inkscape:export-xdpi="96"
   inkscape:export-ydpi="96"
   xmlns:inkscape="http://www.inkscape.org/namespaces/inkscape"
   xmlns:sodipodi="http://sodipodi.sourceforge.net/DTD/sodipodi-0.dtd"
   xmlns:xlink="http://www.w3.org/1999/xlink"
   xmlns="http://www.w3.org/2000/svg"
   xmlns:svg="http://www.w3.org/2000/svg"
   xmlns:rdf="http://www.w3.org/1999/02/22-rdf-syntax-ns#"
   xmlns:cc="http://creativecommons.org/ns#"
   xmlns:dc="http://purl.org/dc/elements/1.1/">
  <defs
     id="defs4">
    <pattern
       inkscape:collect="always"
       xlink:href="#pattern6795"
       id="pattern2"
       patternTransform="matrix(9.3969264,3.4202015,-1.710101,4.698464,185,405)"
       x="0"
       y="0"
       preserveAspectRatio="none" />
    <pattern
       patternUnits="userSpaceOnUse"
       width="20"
       height="20"
       patternTransform="translate(185,405)"
       style="fill:#0077ea"
       id="pattern6795"
       inkscape:label="Abstract 2"
       inkscape:collect="always"
       inkscape:isstock="true">
      <path
         id="rect6713"
         style="opacity:1;stroke-width:4.8561;stroke-linecap:square;paint-order:stroke markers fill;stop-color:#000000"
         d="M 10,10 H 20 L 15,20 H 5 Z M 5,0 H 15 L 10,10 H 0 Z" />
    </pattern>
  </defs>
  <sodipodi:namedview
     id="base"
     pagecolor="#ffffff"
     bordercolor="#666666"
     borderopacity="1.0"
     inkscape:pageopacity="0.0"
     inkscape:pageshadow="2"
     inkscape:zoom="0.55142818"
     inkscape:cx="1058.1614"
     inkscape:cy="917.61723"
     inkscape:document-units="px"
     inkscape:current-layer="layer8"
     showgrid="false"
     inkscape:window-width="1692"
     inkscape:window-height="1056"
     inkscape:window-x="0"
     inkscape:window-y="0"
     inkscape:window-maximized="1"
     borderlayer="true"
     inkscape:snap-page="false"
     showguides="true"
     inkscape:guide-bbox="true"
     inkscape:showpageshadow="2"
     inkscape:pagecheckerboard="0"
     inkscape:deskcolor="#d1d1d1"
     inkscape:export-bgcolor="#000000ff" />
  <metadata
     id="metadata7">
    <rdf:RDF>
      <cc:Work
         rdf:about="">
        <dc:format>image/svg+xml</dc:format>
        <dc:type
           rdf:resource="http://purl.org/dc/dcmitype/StillImage" />
      </cc:Work>
    </rdf:RDF>
  </metadata>
  <g
     inkscape:groupmode="layer"
     id="layer6"
     inkscape:label="wallpaper"
     style="display:none"
     transform="translate(113,113)">
    <rect
       style="fill:#000000;stroke-width:10.4167"
       id="rect5"
       width="2500"
       height="2500"
       x="-738.00006"
       y="-563" />
  </g>
  <g
     inkscape:groupmode="layer"
     id="layer10"
     inkscape:label="backdrop">
    <rect
       style="display:inline;fill:#000000;stroke-width:5.16398"
       id="rect2"
       width="1250"
       height="1600"
       x="-113"
       y="-113"
       transform="translate(113,113)" />
    <rect
       style="display:inline;fill:#000000;stroke-width:4.56437"
       id="rect3"
       width="1250"
       height="1250"
       x="-113"
       y="-113"
       transform="translate(113,113)" />
    <rect
       style="display:inline;fill:#ffcc00;stroke-width:5"
       id="rect1"
       width="1024"
       height="1024"
       x="0"
       y="0"
       transform="translate(113,113)" />
    <rect
       style="display:inline;fill:url(#pattern2);stroke-width:5"
       id="rect1-5"
       width="1024"
       height="1024"
       x="0"
       y="0"
       transform="translate(113,113)" />
  </g>
  <g
     inkscape:groupmode="layer"
     id="layer8"
     inkscape:label="words"
     style="display:inline"
     transform="translate(113,113)">
    <path
       style="font-size:220.723px;line-height:1;font-family:'Futura Display';-inkscape-font-specification:'Futura Display';text-align:center;letter-spacing:0px;text-anchor:middle;fill:#ffffff;stroke-width:1.62221"
       d="m 88.229045,1137 v 32.0092 H 53.525526 v 25.5426 h 7.113143 q 13.148539,0.1078 18.537284,2.6944 8.514218,3.8799 11.42414,15.9507 1.508849,6.1432 1.616624,20.3695 v 9.0531 q -0.4311,18.645 -1.508849,22.0938 -3.125472,15.6274 -15.842911,18.4295 -4.203221,0.7544 -23.387155,0.97 H 14.618785 v -32.0092 h 37.074567 v -25.5426 h -6.14317 q -10.99304,0 -15.735136,-1.6166 -7.328693,-2.4789 -10.669715,-7.5443 -3.987672,-6.4665 -4.849871,-18.1062 -0.21555,-3.5565 -0.21555,-13.0407 v -9.0531 q 0.21555,-18.7528 3.017697,-25.5427 3.017698,-8.2986 8.621993,-11.3163 4.957645,-2.91 15.411811,-3.2333 Q 44.903533,1137 54.172175,1137 Z m 70.377015,0 h 39.44562 v 117.0436 q 0.21555,17.9984 -6.78982,24.5727 -4.7421,3.8799 -16.38179,4.8498 -7.11314,0.6467 -16.48956,0.6467 h -16.16624 q -14.76516,0 -22.09385,-1.1855 -7.32869,-1.2933 -10.88527,-4.311 -6.89759,-6.5743 -6.78982,-24.5727 V 1137 h 39.44562 v 102.6018 q 0,13.5796 8.29867,13.5796 8.40644,0 8.40644,-13.5796 z m 123.61783,0 v 32.0092 h -34.70352 v 25.5426 h 7.11314 q 13.14854,0.1078 18.53729,2.6944 8.51421,3.8799 11.42414,15.9507 1.50884,6.1432 1.61662,20.3695 v 9.0531 q -0.4311,18.645 -1.50885,22.0938 -3.12547,15.6274 -15.84291,18.4295 -4.20322,0.7544 -23.38716,0.97 h -36.85901 v -32.0092 h 37.07456 v -25.5426 h -6.14316 q -10.99305,0 -15.73514,-1.6166 -7.32869,-2.4789 -10.66972,-7.5443 -3.98767,-6.4665 -4.84987,-18.1062 -0.21555,-3.5565 -0.21555,-13.0407 v -9.0531 q 0.21555,-18.7528 3.0177,-25.5427 3.0177,-8.2986 8.62199,-11.3163 4.95765,-2.91 15.41181,-3.2333 Q 238.89838,1137 248.16702,1137 Z m 14.11852,0 h 39.44562 v 57.5518 h 16.81288 V 1137 h 39.44562 v 147.1128 h -39.44562 v -57.5518 h -16.81288 v 57.5518 h -39.44562 z m 110.03815,0 h 39.44561 v 147.1128 h -39.44561 z m 174.16426,0 v 32.0092 h -17.89063 v 115.1036 H 523.20857 V 1169.0092 H 505.31794 V 1137 Z m 48.49869,116.0736 v 31.0392 h -39.44562 v -117.0436 q -0.10778,-17.9984 6.78982,-24.5726 4.74209,-3.8799 16.38178,-4.8499 Q 619.45154,1137 629.36683,1137 h 16.05846 q 14.76516,0 22.09386,1.2933 7.32869,1.1856 10.77749,4.2033 7.11314,6.5742 6.89759,24.5726 v 117.0436 h -39.44561 v -31.0392 z m 0,-32.7636 h 16.70511 v -38.9067 q 0,-13.4719 -8.40645,-13.4719 -8.29866,0 -8.29866,13.4719 z M 695.6484,1137 h 39.76894 q 2.80215,10.2387 3.8799,19.2918 3.01769,-12.0708 10.13084,-16.2741 5.17319,-3.0177 16.92066,-3.0177 13.36409,0 17.89063,2.6944 7.54425,4.7421 9.48419,15.4118 0.53888,2.8022 0.64665,29.6381 v 99.3685 H 754.9246 v -101.8473 q 0,-11.7475 -8.08312,-11.7475 -8.08312,0 -8.08312,12.2864 v 101.3084 H 699.31275 V 1170.518 q 0,-18.4295 -3.66435,-33.518 z m 207.0356,63.0484 v 51.5164 q 0,12.933 -1.40107,19.0761 -2.37105,9.8075 -13.36409,12.1786 -6.14317,1.2933 -24.24935,1.2933 h -16.59734 q -14.01073,0 -20.90833,-0.6467 -13.57964,-1.6166 -16.70511,-11.1008 -1.7244,-5.4965 -1.93995,-13.2563 l -0.21555,-14.6574 -0.10777,-11.5319 v -44.1877 q 0,-19.8306 1.50885,-29.6381 1.61662,-9.9153 5.60429,-14.5496 5.71207,-6.6821 20.15391,-7.3287 Q 839.31236,1137 847.07215,1137 H 902.684 v 36.2124 q -7.65201,-3.5566 -28.66812,-4.2032 h -13.90296 q -9.48419,0.1078 -11.42414,2.2633 -2.1555,2.371 -2.04773,11.2086 v 52.2708 q -0.10777,10.0231 1.18553,13.6874 1.2933,3.5566 9.05309,3.6643 h 6.35872 v -35.4579 q -0.10778,-8.7298 -3.12547,-16.5973 z m 107.236,-3.3411 v 27.5904 q 0,16.8129 -1.2933,27.1593 -2.9099,20.8006 -14.4418,27.6981 -7.97534,4.8499 -23.27938,4.9577 h -17.78286 q -15.30404,-0.1078 -23.27938,-4.9577 -11.53191,-6.8975 -14.54961,-27.6981 -1.18553,-10.3464 -1.18553,-27.1593 v -27.5904 q 0,-16.8128 1.18553,-27.1592 3.0177,-20.6928 14.54961,-27.5904 7.97534,-4.8499 23.27938,-4.9577 h 17.78286 q 15.30404,0.1078 23.27938,4.9577 11.5319,6.8976 14.4418,27.5904 1.2933,10.3464 1.2933,27.1592 z m -39.44558,45.8044 v -63.4794 q 0,-5.9277 -2.47882,-8.622 -2.5866,-2.91 -5.92762,-2.91 -4.09545,0 -6.68205,3.6644 -1.83217,2.5866 -1.83217,7.8676 v 63.4794 q 0,5.9276 2.47882,8.7297 2.5866,2.91 6.0354,2.91 3.98767,0 6.57427,-3.6644 1.83217,-2.6944 1.83217,-7.9753 z"
       id="text3827"
       aria-label="SUSHI TANGO" />
    <path
       style="font-size:220.723px;line-height:1;font-family:'Futura Display';-inkscape-font-specification:'Futura Display';text-align:center;letter-spacing:0px;text-anchor:middle;display:inline;fill:#ffffff;stroke-width:1.62221"
       d="m 292.13923,1284.1128 h 39.7689 c 1.8681,-6.8258 3.1614,-13.2564 3.8799,-19.2918 0,0 -0.5388,-18.3217 -0.5388,-26.5126 v -10.6777 h -38.90682 v 22.9641 c 0,12.2863 -1.76028,23.459 -4.20318,33.518 z"
       id="path1-2"
       aria-label="SUSHI TANGO"
       sodipodi:nodetypes="cccsccsc" />
    <path
       d="m 32.609469,1336.8175 v 49.9039 h 42.744398 v -49.9039 h 15.098767 v 46.8558 q 0,8.3646 -3.402539,11.4835 -3.331653,3.0482 -12.759522,3.0482 H 33.672762 q -9.356982,0 -12.688635,-3.0482 -3.260767,-3.0481 -3.260767,-11.4835 v -46.8558 z m 85.134361,61.3875 v -61.3875 h 10.2785 l 52.10138,40.7596 v -40.7596 h 13.53927 v 61.3875 h -10.34939 l -51.9596,-41.3976 v 41.3976 z m 116.8205,-11.7672 h 49.47859 v -38.3494 h -49.47859 z m -14.95699,-35.1595 q 0,-8.3646 3.26077,-11.4127 3.26076,-3.0481 12.68863,-3.0481 h 47.49378 q 9.49875,0 12.68863,3.0481 3.26077,3.0481 3.26077,11.4127 v 32.395 q 0,8.4354 -3.33165,11.4835 -3.26077,3.0482 -12.61775,3.0482 h -47.49378 q -9.42787,0 -12.68863,-3.0482 -3.26077,-3.0481 -3.26077,-11.4835 z m 154.17754,-3.8988 h -34.16716 v 17.0127 h 34.16716 q 3.89875,0 5.31647,-1.1342 1.48861,-1.1341 1.48861,-3.8278 v -7.0886 q 0,-2.6937 -1.48861,-3.8279 -1.41772,-1.1342 -5.31647,-1.1342 z m -48.9115,50.8255 v -61.3875 h 55.29127 q 7.58482,0 10.98736,2.8354 3.40254,2.7646 3.40254,9.0735 v 14.4608 q 0,6.2379 -3.40254,9.0025 -3.40254,2.7646 -10.98736,2.7646 h -8.43547 l 29.20513,23.2507 h -21.47853 l -25.7317,-23.2507 h -14.10636 v 23.2507 z m 125.7522,-50.4002 v 50.4002 h -14.957 v -50.4002 h -29.63044 v -10.9873 h 74.28877 v 10.9873 z m 49.05329,50.4002 v -61.3875 h 15.09876 v 23.3215 h 46.71403 v -23.3215 h 14.95699 v 61.3875 h -14.95699 v -25.8735 h -46.71403 v 25.8735 z m 117.67114,-11.7672 h 49.47859 v -38.3494 h -49.47859 z m -14.957,-35.1595 q 0,-8.3646 3.26077,-11.4127 3.26077,-3.0481 12.68864,-3.0481 h 47.49377 q 9.49876,0 12.68864,3.0481 3.26076,3.0481 3.26076,11.4127 v 32.395 q 0,8.4354 -3.33165,11.4835 -3.26077,3.0482 -12.61775,3.0482 h -47.49377 q -9.42787,0 -12.68864,-3.0482 -3.26077,-3.0481 -3.26077,-11.4835 z m 120.36479,35.4431 h 19.28105 q 15.80763,0 22.11651,-4.6076 6.30887,-4.6076 6.30887,-15.5241 0,-9.4988 -5.24558,-14.1064 -5.24558,-4.6785 -16.09118,-4.6785 H 722.7578 Z m -15.09877,11.4836 v -61.3875 h 41.32667 q 17.79245,0 27.2912,7.9392 9.56964,7.8684 9.56964,22.5419 0,15.4532 -10.13673,23.1798 -10.06584,7.7266 -30.48108,7.7266 z m 114.19775,-11.7672 h 49.47859 v -38.3494 h -49.47859 z m -14.95699,-35.1595 q 0,-8.3646 3.26077,-11.4127 3.26076,-3.0481 12.68863,-3.0481 h 47.49378 q 9.49875,0 12.68863,3.0481 3.26077,3.0481 3.26077,11.4127 v 32.395 q 0,8.4354 -3.33165,11.4835 -3.26077,3.0482 -12.61775,3.0482 h -47.49378 q -9.42787,0 -12.68863,-3.0482 -3.26077,-3.0481 -3.26077,-11.4835 z m 98.95714,46.9267 30.33931,-31.4735 -30.9064,-29.914 h 20.0608 l 20.6279,19.8481 19.42282,-19.8481 h 17.29624 l -28.00006,28.1418 34.5216,33.2457 h -20.48612 l -23.53423,-22.9672 -21.6203,22.9672 z"
       id="text1"
       style="font-size:145.175px;line-height:1;font-family:'BankGothic Md BT';-inkscape-font-specification:'BankGothic Md BT';font-variant-ligatures:no-contextual;text-align:center;letter-spacing:0px;word-spacing:0px;text-anchor:middle;fill:#ffffff;stroke-width:5.33482"
       transform="scale(1.0169399,0.98334228)"
       aria-label="unorthodox" />
    <path
       d="m 1031.5778,1144.5616 -6.6986,-15.1233 h 2.7123 l 4.6849,11.0959 4.685,-11.0959 h 2.7123 l -6.6986,15.1233 z m -7.1918,0 v -15.1233 h 2.6302 v 15.1233 z m 13.1507,0 v -15.1233 h 2.6302 v 15.1233 z m -23.0137,0 v -13.8082 h 2.6301 v 13.8082 z m -4.6028,-12.8219 v -2.3014 h 11.8357 v 2.3014 z"
       id="text2"
       style="font-size:57.8632px;line-height:1;font-family:Inter;-inkscape-font-specification:Inter;font-variant-ligatures:no-contextual;text-align:end;letter-spacing:0px;word-spacing:0px;text-anchor:end;fill:#ffffff;stroke-width:2.12634"
       aria-label="™" />
    <g
       inkscape:groupmode="layer"
       id="layer1"
       inkscape:label="beta"
       style="display:none">
      <path
         id="rect4"
         style="display:inline;fill:#ffffff;stroke-width:0.942807"
         d="M 11.999988,1407 H 1012 v 80 H 11.999988 Z" />
      <path
         d="m 58.245898,1490.7183 v -38.4125 h 34.509124 q 4.834826,0 6.963924,1.7742 2.129094,1.7299 2.129094,5.6776 v 4.6131 q 0,2.617 -1.68553,4.3025 -1.685538,1.6856 -4.879184,2.2622 3.238002,0.5323 5.012254,2.4839 1.8186,1.9074 1.8186,4.8349 v 4.9235 q 0,3.7703 -2.971865,5.6776 -2.971865,1.863 -8.959953,1.863 z M 88.452471,1458.56 H 67.471988 v 9.093 h 20.980483 q 2.439591,0 3.326715,-0.6209 0.887124,-0.621 0.887124,-2.1291 v -3.6373 q 0,-1.5081 -0.887124,-2.0847 -0.842768,-0.621 -3.326715,-0.621 z m 0,15.436 H 67.471988 v 9.8027 h 20.980483 q 2.661372,0 3.592852,-0.7541 0.975836,-0.754 0.975836,-2.6613 v -2.9275 q 0,-1.9074 -0.975836,-2.6614 -0.93148,-0.7984 -3.592852,-0.7984 z m 29.496869,16.7223 v -38.4125 h 41.20691 v 6.7865 h -31.75904 v 8.3833 h 18.49654 v 6.6091 h -18.49654 v 9.4479 h 32.24696 v 7.1857 z m 78.11127,-31.5373 v 31.5373 h -9.35916 v -31.5373 h -18.54089 v -6.8752 h 46.4853 v 6.8752 z m 18.2304,31.5373 22.79909,-38.4125 h 9.00431 l 23.15393,38.4125 h -10.51242 l -4.83482,-8.4277 h -25.41611 l -4.83482,8.4277 z m 18.18604,-15.436 h 17.60941 l -8.95995,-16.0126 z m 81.52669,15.436 v -38.4125 h 41.20691 v 6.7865 h -31.75904 v 8.3833 h 18.49654 v 6.6091 h -18.49654 v 9.4479 h 32.24696 v 7.1857 z m 49.36846,0 22.79909,-38.4125 h 9.00431 l 23.15394,38.4125 h -10.51242 l -4.83483,-8.4277 h -25.4161 l -4.83483,8.4277 z m 18.18604,-15.436 h 17.60942 l -8.95996,-16.0126 z m 76.95802,-16.3674 h -21.37969 v 10.6455 h 21.37969 q 2.43959,0 3.32671,-0.7097 0.93148,-0.7097 0.93148,-2.3953 v -4.4356 q 0,-1.6855 -0.93148,-2.3952 -0.88712,-0.7097 -3.32671,-0.7097 z m -30.60578,31.8034 v -38.4125 h 34.59784 q 4.74611,0 6.87521,1.7742 2.12909,1.7299 2.12909,5.6776 v 9.0487 q 0,3.9033 -2.12909,5.6332 -2.1291,1.7299 -6.87521,1.7299 h -5.27839 l 18.27475,14.5489 h -13.43993 l -16.1013,-14.5489 h -8.82688 v 14.5489 z m 59.03809,0 v -38.4125 h 9.44787 v 31.2268 h 30.11786 v 7.1857 z m 54.64684,0 v -17.2546 l -20.98049,-21.1579 h 12.64152 l 13.70607,14.327 13.88349,-14.327 h 11.00034 l -20.89177,20.9805 v 17.432 z m 68.66339,0 22.79909,-38.4125 h 9.00431 l 23.15393,38.4125 h -10.51242 l -4.83482,-8.4277 h -25.41611 l -4.83482,8.4277 z m 18.18604,-15.436 h 17.60941 l -8.95995,-16.0126 z m 80.01862,-15.9239 h -25.23868 v 23.9967 h 25.23868 v -8.1615 l 9.44787,1.9073 v 4.5243 q 0,5.2341 -2.08474,7.1857 -2.08474,1.9074 -7.98411,1.9074 h -23.99671 q -5.81066,0 -7.8954,-1.9074 -2.08474,-1.9073 -2.08474,-7.1857 v -20.2707 q 0,-5.2341 2.04038,-7.1414 2.08474,-1.9073 7.93976,-1.9073 h 23.99671 q 5.94373,0 7.98411,1.9073 2.08474,1.9073 2.08474,7.1414 v 3.7259 l -9.44787,1.375 z m 58.5058,0 h -25.23868 v 23.9967 h 25.23868 v -8.1615 l 9.44787,1.9073 v 4.5243 q 0,5.2341 -2.08474,7.1857 -2.08474,1.9074 -7.98412,1.9074 h -23.9967 q -5.81066,0 -7.8954,-1.9074 -2.08475,-1.9073 -2.08475,-7.1857 v -20.2707 q 0,-5.2341 2.04039,-7.1414 2.08474,-1.9073 7.93976,-1.9073 h 23.9967 q 5.94374,0 7.98412,1.9073 2.08474,1.9073 2.08474,7.1414 v 3.7259 l -9.44787,1.375 z m 24.8395,31.3599 v -38.4125 h 41.20691 v 6.7865 h -31.75904 v 8.3833 h 18.49654 v 6.6091 h -18.49654 v 9.4479 h 32.24696 v 7.1857 z m 90.70841,-31.5373 h -26.43629 v 8.1172 h 25.0169 q 5.89937,0 7.93976,1.9073 2.04038,1.863 2.04038,7.1414 v 5.2783 q 0,5.2784 -2.08474,7.1857 -2.08474,1.9074 -7.8954,1.9074 h -24.92819 q -5.94373,0 -8.07283,-1.9074 -2.08474,-1.9073 -2.08474,-7.1857 v -1.0645 l 8.33897,-1.5525 v 4.5244 h 28.2549 v -8.7826 h -24.88383 q -5.89938,0 -7.98412,-1.9073 -2.08474,-1.9517 -2.08474,-7.1857 v -4.3025 q 0,-5.1897 2.08474,-7.097 2.08474,-1.9517 7.98412,-1.9517 h 22.79909 q 5.81066,0 7.93976,1.863 2.17345,1.8186 2.17345,6.476 v 0.9314 l -8.11719,1.7299 z m 57.61866,0 h -26.4363 v 8.1172 h 25.0169 q 5.89937,0 7.93976,1.9073 2.04038,1.863 2.04038,7.1414 v 5.2783 q 0,5.2784 -2.08474,7.1857 -2.08474,1.9074 -7.8954,1.9074 h -24.92819 q -5.94373,0 -8.07283,-1.9074 -2.08474,-1.9073 -2.08474,-7.1857 v -1.0645 l 8.33897,-1.5525 v 4.5244 h 28.2549 v -8.7826 h -24.88383 q -5.89937,0 -7.98412,-1.9073 -2.08474,-1.9517 -2.08474,-7.1857 v -4.3025 q 0,-5.1897 2.08474,-7.097 2.08475,-1.9517 7.98412,-1.9517 h 22.79909 q 5.81066,0 7.93976,1.863 2.17345,1.8186 2.17345,6.476 v 0.9314 l -8.11718,1.7299 z"
         id="text4"
         style="font-size:90.8415px;line-height:1;font-family:'BankGothic Md BT';-inkscape-font-specification:'BankGothic Md BT';font-variant-ligatures:no-contextual;text-align:center;letter-spacing:0px;word-spacing:0px;text-anchor:middle;display:inline;stroke-width:3.33821"
         transform="scale(1.0169399,0.98334228)"
         aria-label="beta early access" />
    </g>
    <path
       style="font-size:220.723px;line-height:1;font-family:'Futura Display';-inkscape-font-specification:'Futura Display';text-align:center;letter-spacing:0px;text-anchor:middle;fill:#ffffff;stroke-width:1.62221"
       d="m 203.36698,1137 h -40.88102 c -1.8681,6.8258 -3.1614,13.2564 -3.8799,19.2918 0,0 0.5388,18.3217 0.5388,26.5126 v 10.6777 h 38.90682 v -22.9641 c 0,-12.2863 0,-21.4435 5.3153,-33.518 z"
       id="path1"
       aria-label="SUSHI TANGO"
       sodipodi:nodetypes="cccsccsc" />
    <path
       style="font-size:220.723px;line-height:1;font-family:'Futura Display';-inkscape-font-specification:'Futura Display';text-align:center;letter-spacing:0px;text-anchor:middle;display:inline;fill:#ffffff;stroke-width:1.62221"
       d="m 584.748,1137 h -39.7689 c -1.8681,6.8258 -3.1614,13.2564 -3.8799,19.2918 l 0.5388,37.1903 h 38.90682 v -22.9641 c 0,-12.2863 1.76028,-23.459 4.20318,-33.518 z"
       id="path1-6"
       aria-label="SUSHI TANGO"
       sodipodi:nodetypes="cccccsc" />
    <rect
       style="fill:#000000;stroke-width:5"
       id="rect6"
       width="17.890631"
       height="57.5518"
       x="562.65417"
       y="1169.0092" />
    <path
       style="font-size:220.723px;line-height:1;font-family:'Futura Display';-inkscape-font-specification:'Futura Display';text-align:center;letter-spacing:0px;text-anchor:middle;display:inline;fill:#ffffff;stroke-width:1.62221"
       d="m 908.95964,1137 h -41.84137 c -1.8681,6.8258 16.88729,26.4483 16.16878,32.4837 l 19.39695,3.7287 v -2.6944 c 0,0 0,-15.4118 6.27564,-33.518 z"
       id="path1-5"
       aria-label="SUSHI TANGO"
       sodipodi:nodetypes="ccccsc" />
    <path
       style="font-size:220.723px;line-height:1;font-family:'Futura Display';-inkscape-font-specification:'Futura Display';text-align:center;letter-spacing:0px;text-anchor:middle;display:inline;fill:#ffffff;stroke-width:1.62221"
       d="m 204.38726,1284.1128 h 39.79209 c 1.8681,-6.8258 3.1614,-13.2564 3.8799,-19.2918 0,0 -0.5388,-1.5967 -0.5388,-9.7876 v -10.6777 h -38.90682 v 6.2391 c 0,12.2863 0,17.5134 -4.22637,33.518 z"
       id="path1-56"
       aria-label="SUSHI TANGO"
       sodipodi:nodetypes="cccsccsc" />
    <rect
       style="fill:#000000;stroke-width:5"
       id="rect7"
       width="42.480518"
       height="23.050255"
       x="203.20767"
       y="1229.0533" />
  </g>
  <g
     inkscape:groupmode="layer"
     id="layer5"
     inkscape:label="tanglarm"
     transform="translate(113,113)">
    <path
       style="fill:#000000;stroke:none;stroke-width:0.920627"
       d="m 537.5454,208.43059 34.64405,-21.17136 17.32201,9.62335 13.47269,25.02069 -4.05194,62.29851 -2.75211,35.00665 69.96749,-41.96508 33.32437,-13.36829 12.55881,18.92821 -21.32367,17.84819 3.68317,7.97562 -139.82238,91.95489 -26.30843,-32.38708 z"
       id="path3007"
       inkscape:connector-curvature="0"
       sodipodi:nodetypes="cccccccccccccc" />
  </g>
  <g
     inkscape:groupmode="layer"
     id="layer2"
     inkscape:label="tango"
     style="display:inline"
     transform="translate(113,113)">
    <path
       style="fill:#000000;stroke:none;stroke-width:0.920627"
       d="m 633.89666,260.02284 c 12.34759,5.19707 38.53386,-11.41903 38.53386,-11.41903 0,0 1.24567,-0.56116 9.42363,4.90379 8.17797,5.46496 14.2248,-24.59789 14.2248,-24.59789 0,0 8.29607,-2.41034 11.05576,-5.45531 16.29293,-17.97712 32.09141,-44.72388 25.65222,-68.11525 -7.07437,-25.69886 -39.74962,-46.82597 -66.80977,-46.15968 -19.54855,0.48134 -35.60737,19.48491 -46.5645,35.68119 -11.12635,16.4464 -18.15347,37.62567 -16.03986,57.36933 2.319,21.66236 10.44388,49.34123 30.52386,57.79285 z"
       id="path3828"
       inkscape:connector-curvature="0"
       sodipodi:nodetypes="acscasaaaa" />
    <path
       style="fill:#000000;stroke:none;stroke-width:0.920627"
       d="m 606.81433,179.01578 c -9.54042,-9.10314 -22.15145,-17.46175 -35.33398,-17.79023 -14.77407,-0.36815 -29.52313,8.0945 -40.54378,17.94102 -17.0011,15.18984 -24.6027,38.51652 -34.51834,59.04574 -10.7779,22.31448 -19.91012,45.52668 -26.94536,69.2881 -23.04735,77.84211 -49.53491,238.4564 -49.53491,238.4564 L 217.84768,778.84179 c 0,0 -18.76396,11.43301 -25.02069,26.40407 -12.5942,30.13528 -31.4022,43.70835 -40.08727,64.77715 -5.44592,13.21108 -19.33673,35.24615 -6.91677,42.31265 21.56518,12.2698 68.75421,-23.20218 89.61742,-50.25191 14.66352,-19.01166 19.72785,-31.21573 19.72785,-31.21573 l 26.19355,7.63852 223.26165,-211.71362 94.30879,-161.67223 96.23347,119.32951 -19.2467,252.1016 c 0,0 76.54134,43.55848 103.93215,21.20144 7.72429,-6.30476 8.77658,-25.13579 0.03,-29.92259 -13.66332,-7.47772 -26.97539,-23.96815 -26.97539,-23.96815 l 5.77401,-78.91144 9.62334,-175.14491 -40.41805,-90.45946 -99.03025,-78.43027 27.81748,-48.59791 c 0,0 2.13435,-49.99017 -4.88607,-73.52943 -8.72427,-29.25222 -22.88689,-58.70059 -44.97189,-79.7733 z"
       id="path2999"
       inkscape:connector-curvature="0"
       sodipodi:nodetypes="aaaaaccssssccccccssccccccaa" />
    <path
       style="fill:#ffffff;stroke:none;stroke-width:0.920627"
       d="m 637.17885,267.26714 c 0,0 -25.23563,-26.00863 -32.75125,-42.13065 -3.64483,-7.81864 -4.82735,-16.69699 -5.43654,-25.30191 -0.47497,-6.70909 1.4172,-20.12779 1.4172,-20.12779 0,0 -7.54068,4.13117 -9.45062,7.72335 -4.32778,8.13961 -5.51441,18.81635 -2.53317,27.53962 7.70736,22.5521 48.75438,52.29738 48.75438,52.29738 z"
       id="path3801"
       inkscape:connector-curvature="0"
       sodipodi:nodetypes="caacaac" />
    <path
       style="fill:#ffffff;stroke:none;stroke-width:0.920627"
       d="m 719.98898,196.16049 c 0,0 -16.6467,-4.79789 -24.42849,-8.51296 -6.33373,-3.02374 -17.88956,-11.10385 -17.88956,-11.10385 0,0 -7.69923,7.37443 -8.59229,12.29357 -0.8721,4.80364 3.63521,14.18826 3.63521,14.18826 0,0 -11.98632,-7.57043 -17.86753,-5.50787 -5.86631,2.05732 -10.48697,15.42202 -10.48697,15.42202 0,0 -8.66197,-6.30134 -9.87011,-11.10385 -1.08291,-4.30476 3.7157,-8.56075 3.08442,-12.95451 -0.94309,-6.56387 -4.01964,-14.15083 -9.8701,-17.27268 -2.54628,-1.35872 -6.10744,-0.7739 -8.63635,0.61688 -4.49295,2.47094 -8.2566,7.32029 -9.14308,12.37067 -1.64176,9.35342 4.00834,18.74714 8.11857,27.30798 1.39737,2.91048 -5.05192,4.25495 -5.1443,7.20431 -0.3008,9.60132 15.2458,24.45498 15.2458,24.45498 0,0 20.14292,-9.37585 28.03499,-16.91467 4.53817,-4.33501 10.45395,-15.65887 10.45395,-15.65887 0,0 24.2762,11.64477 35.71303,7.5017 8.91931,-3.23108 17.64281,-22.33111 17.64281,-22.33111 z"
       id="path3791"
       inkscape:connector-curvature="0"
       sodipodi:nodetypes="cacacacaaaaasacacac" />
  </g>
  <g
     inkscape:groupmode="layer"
     id="layer3"
     inkscape:label="sushi"
     transform="translate(113,113)">
    <path
       style="fill:#808080;stroke:none;stroke-width:0.920627"
       d="m 906.8793,403.53128 c 11.72985,32.43331 -9.34126,72.80124 -32.71937,98.15814 -28.83625,31.27702 -78.13397,33.68347 -117.40483,50.04139 -41.10869,17.12346 -84.3985,29.49672 -123.74458,50.35397 -38.64189,20.48395 -72.30533,49.24596 -109.14042,72.82487 -55.7881,35.71116 -107.33734,67.56772 -169.37089,103.93214 -44.80652,26.26584 -58.73814,21.37582 -88.5348,17.32204 -18.47909,-2.51406 -37.60376,-11.12457 -50.0414,-25.02071 -8.66366,-9.67961 -13.71116,-23.58037 -13.47268,-36.56872 0.713,-38.83278 17.85709,-79.30358 44.26739,-107.78148 143.00645,-154.20212 353.83369,-292.38534 563.92812,-282.92639 37.70474,1.69755 83.39703,24.17172 96.23346,59.66475 z"
       id="path3787"
       inkscape:connector-curvature="0"
       sodipodi:nodetypes="aaaaasaaaaaa" />
    <path
       style="fill:#ffffff;stroke:none;stroke-width:0.920627"
       d="m 196.67632,638.34093 c -9.58786,13.36005 -19.29392,29.86635 -17.32202,46.19207 3.81952,31.62265 30.71576,57.05965 53.89074,78.91145 10.88706,10.26545 23.54975,22.32427 38.49339,23.09603 65.06523,3.36027 119.93922,-51.44147 177.06957,-82.76079 67.55524,-37.03432 121.40392,-86.89901 195.11482,-123.88492 37.92755,-19.03092 85.23607,-32.30145 128.22963,-47.41065 22.96832,-8.07174 47.82342,-11.60848 69.2881,-23.09603 12.89867,-6.90316 27.02784,-14.45447 34.64404,-26.94537 21.74803,-35.66771 36.82459,-83.72394 23.09604,-123.17884 -6.42614,-18.46824 -25.34541,-33.56089 -44.2674,-38.49339 -72.93136,-19.01139 -149.88329,22.21731 -221.33696,46.19207 -86.79198,29.1212 -170.87268,68.53117 -248.28236,117.40483 -68.62766,43.32902 -141.29667,88.03501 -188.61759,153.97354 z"
       id="path3009"
       inkscape:connector-curvature="0"
       sodipodi:nodetypes="aaaaasaaaaaaaa" />
  </g>
  <g
     inkscape:groupmode="layer"
     id="layer7"
     inkscape:label="shrimp"
     transform="translate(113,113)">
    <path
       style="fill:#ff432d;fill-opacity:1;stroke:none;stroke-width:0.920627"
       d="m 177.42963,821.18453 c 0,0 32.22903,-51.97608 53.89074,-73.13744 75.77673,-74.0264 168.2189,-129.91154 260.18341,-182.49054 84.215,-48.14835 171.45103,-94.44748 264.88115,-120.54806 55.49602,-15.50334 117.01022,-2.05935 171.66575,-20.30585 15.61658,-5.21352 34.16745,-10.74614 42.69807,-24.82759 13.34375,-22.02639 13.47918,-53.44147 3.49406,-77.17989 -5.08278,-12.08361 -29.32607,-26.20342 -29.32607,-26.20342 0,0 -13.96255,-43.25188 -32.26343,-52.70802 -48.16029,-24.88464 -109.21187,-0.18264 -162.25594,10.99699 -11.53961,2.43209 -22.25844,7.81319 -33.26137,12.05736 -74.85094,28.87237 -151.81516,53.681 -222.74147,91.17415 -52.66288,27.83871 -104.36973,59.17892 -149.08269,98.53784 -65.02976,57.24295 -132.11799,118.81326 -169.65883,196.89213 -16.73063,34.79699 -21.31941,113.85159 -21.31941,113.85159 l -111.630821,100.08281 39.903004,7.87736 52.927967,-48.94239 -46.469141,54.80868 32.020041,22.63143 z"
       id="path3783"
       inkscape:connector-curvature="0"
       sodipodi:nodetypes="caaaaaacaaaaaaccccccc" />
    <path
       style="fill:#ffffff;stroke:none;stroke-width:0.920627"
       d="m 724.03571,270.7291 c 0,0 14.426,14.90071 19.37625,23.8756 4.8448,8.78371 9.64763,28.50535 9.64763,28.50535 0,0 21.15453,19.24291 26.13456,32.1148 8.70617,22.50284 3.99508,72.27458 3.99508,72.27458 l 15.42743,-2.58628 c 0,0 3.37951,-50.75254 -5.91975,-73.50756 -5.50154,-13.46214 -27.95772,-33.49371 -27.95772,-33.49371 0,0 -5.7185,-20.82682 -11.19264,-29.98337 -4.78328,-8.00096 -18.44788,-21.01738 -18.44788,-21.01738 z"
       id="path3016"
       inkscape:connector-curvature="0"
       sodipodi:nodetypes="cacaccacacc" />
    <path
       style="fill:#ffffff;stroke:none;stroke-width:0.920627"
       d="m 627.71723,313.46147 -15.31233,5.38436 c 0,0 15.10154,12.06284 20.11522,20.1099 6.06647,9.73678 11.11498,32.57179 11.11498,32.57179 0,0 17.17623,18.17303 22.90352,29.1114 7.97846,15.23777 15.15438,49.325 15.15438,49.325 l 12.23969,-4.18014 c 0,0 -6.86013,-36.19196 -15.09229,-52.39635 -5.57411,-10.97223 -22.62619,-29.17535 -22.62619,-29.17535 0,0 -4.91597,-22.58405 -10.78686,-32.29857 -4.40949,-7.29638 -17.71012,-18.45204 -17.71012,-18.45204 z"
       id="path3014"
       inkscape:connector-curvature="0"
       sodipodi:nodetypes="ccacaccacac" />
    <path
       style="fill:#ffffff;stroke:none;stroke-width:0.920627"
       d="m 475.63633,379.11438 -12.27301,5.97001 c 0,0 16.84584,11.10408 23.21242,18.74437 7.04196,8.45078 15.7615,28.99342 15.7615,28.99342 0,0 24.36989,24.5015 33.50139,39.0056 7.58047,12.04048 17.17633,39.07558 17.17633,39.07558 l 12.60188,-10.49902 c 0,0 -8.86129,-22.8061 -15.59198,-32.90707 -8.94952,-13.43081 -32.39934,-35.9807 -32.39934,-35.9807 0,0 -11.25676,-23.25808 -19.46454,-33.06747 -6.34978,-7.58884 -22.52465,-19.33472 -22.52465,-19.33472 z"
       id="path3012"
       inkscape:connector-curvature="0"
       sodipodi:nodetypes="ccacaccacac" />
    <path
       style="fill:#ffffff;stroke:none;stroke-width:0.920627"
       d="m 351.10812,459.89315 -9.65367,8.44665 c 0,0 17.91745,9.97415 25.10027,17.11166 7.49525,7.44798 18.02133,26.07859 18.02133,26.07859 0,0 27.21838,16.14807 36.44047,28.5097 7.85745,10.53237 14.43909,36.68169 14.43909,36.68169 l 12.08933,-6.25517 c 0,0 -7.14631,-26.29257 -15.22097,-36.8471 -9.51672,-12.43943 -37.22238,-28.6751 -37.22238,-28.6751 0,0 -10.38972,-19.29068 -17.96119,-27.00893 -7.39343,-7.53678 -26.03228,-18.04199 -26.03228,-18.04199 z"
       id="path3010"
       inkscape:connector-curvature="0"
       sodipodi:nodetypes="ccacaccacac" />
    <path
       style="fill:#ffffff;stroke:none;stroke-width:0.920627"
       d="m 254.24659,552.6292 -7.63371,8.45534 c 0,0 13.47186,7.1067 19.00516,12.21491 5.53149,5.10653 13.68747,17.96441 13.68747,17.96441 0,0 19.02451,9.56495 26.09095,17.22443 9.01421,9.77069 19.22466,34.94158 19.22466,34.94158 l 7.06713,-6.13489 c 0,0 -9.63944,-25.96582 -18.41267,-36.32493 -6.76204,-7.98436 -25.27898,-18.60779 -25.27898,-18.60779 0,0 -8.61258,-12.82758 -14.34908,-17.87421 -5.69071,-5.00633 -19.40093,-11.85885 -19.40093,-11.85885 z"
       id="path3008"
       inkscape:connector-curvature="0"
       sodipodi:nodetypes="ccacaccacac" />
    <path
       style="fill:#ffffff;stroke:none;stroke-width:0.920627"
       d="m 193.74629,665.2909 c -3.90858,-1.83942 -12.62485,-2.92521 -12.62485,-2.92521 0,0 6.99204,3.75388 9.97932,6.31852 4.55006,3.90629 11.81399,13.56792 11.81399,13.56792 0,0 12.91666,6.99288 17.03319,12.77401 6.15525,8.64427 9.71841,30.31587 9.71841,30.31587 l 17.22245,-14.34643 c 0,0 -11.54254,-19.77808 -20.29175,-26.76262 -5.65406,-4.51369 -19.77027,-8.95618 -19.77027,-8.95618 0,0 -8.11714,-7.65009 -13.08049,-9.98588 z"
       id="path3785"
       inkscape:connector-curvature="0"
       sodipodi:nodetypes="acacaccaca" />
    <path
       style="fill:#ffffff;stroke:none;stroke-width:0.920627"
       d="m 849.88078,238.72181 c 0,0 30.22385,5.87629 42.99603,13.85089 18.53947,11.57554 45.46344,47.2485 45.46344,47.2485 0,0 -13.61571,-39.11981 -29.53627,-50.26347 -16.36077,-11.45178 -58.9232,-10.83592 -58.9232,-10.83592 z"
       id="path3807"
       inkscape:connector-curvature="0"
       sodipodi:nodetypes="cacac" />
    <path
       style="fill:#ffffff;stroke:none;stroke-width:0.920627"
       d="m 190.23595,782.27171 c 0,0 20.4735,-45.01092 36.98815,-62.84773 70.20754,-75.82831 162.79957,-129.29458 254.30329,-177.31651 124.93185,-65.5653 255.39884,-149.73326 396.48187,-148.19954 35.42983,0.38516 50.04142,21.17136 50.04142,21.17136 0,0 -51.48645,14.53671 -125.10352,13.64921 -19.86828,-0.23952 -48.51429,6.50726 -71.529,14.36464 -112.39452,38.37223 -217.73245,96.53901 -319.28695,158.11528 -64.47329,39.09256 -127.92589,81.53917 -182.73099,133.32173 -14.96139,14.13627 -39.16427,47.74156 -39.16427,47.74156 z"
       id="path3824"
       inkscape:connector-curvature="0"
       sodipodi:nodetypes="caascsaaac" />
  </g>
  <g
     inkscape:groupmode="layer"
     id="layer9"
     inkscape:label="highlight"
     style="display:inline"
     transform="translate(113,113)">
    <path
       style="fill:#ffffff;stroke:none;stroke-width:0.920627"
       d="m 570.06217,263.03041 c 0,0 26.26802,-5.87305 38.49338,-1.92466 11.72744,3.78756 23.53148,11.98847 28.87005,23.09603 6.66995,13.87769 1.6922,30.88797 0,46.19206 -4.841,43.78153 -28.87005,128.95285 -28.87005,128.95285 l 9.16201,20.35682 -53.53752,25.10715 z"
       id="path3803"
       inkscape:connector-curvature="0"
       sodipodi:nodetypes="caaacccc" />
  </g>
  <g
     inkscape:groupmode="layer"
     id="layer4"
     inkscape:label="tangrarm"
     transform="translate(113,113)">
    <path
       style="fill:#000000;stroke:none;stroke-width:0.920627"
       d="m 529.64412,295.7498 c 6.36116,-14.55484 19.53437,-27.81986 34.64404,-32.71939 14.15521,-4.59001 31.52639,-1.91394 44.26739,5.77402 11.43028,6.89706 23.87086,19.39195 23.09604,32.71937 -3.78858,65.16533 -30.79471,161.67222 -30.79471,161.67222 l 50.04141,88.53479 35.17361,39.71196 c 0,0 -25.92358,20.77522 -40.61805,18.47262 -13.06503,-2.04727 -29.35902,-26.68377 -29.35902,-26.68377 l -24.15518,7.52216 -64.22021,-104.46172 c 0,0 -23.5122,-132.34075 1.92468,-190.54226 z"
       id="path3004"
       inkscape:connector-curvature="0"
       sodipodi:nodetypes="aaascccaccca" />
    <path
       style="fill:#ffffff;stroke:none;stroke-width:0.920627"
       d="m 675.34493,588.8043 -25.54297,-26.47562 -26.78016,16.10237 c 0,0 12.14169,21.31154 22.83783,23.37801 10.54693,2.03763 29.4853,-13.00476 29.4853,-13.00476 z"
       id="path3834"
       inkscape:connector-curvature="0"
       sodipodi:nodetypes="cccac" />
  </g>
</svg>
